<svg width="1050" height="265" viewBox="0 0 1050 265" fill="none" xmlns="http://www.w3.org/2000/svg">
<g clip-path="url(#clip0_1_138)">
<g clip-path="url(#clip1_1_138)">
<g clip-path="url(#clip2_1_138)">
<path d="M48.2554 182.425L54.4193 182.553C52.2949 181.818 50.2349 180.924 48.2554 179.871V182.425ZM57.5415 181.579V182.425L54.4193 182.553C60.2935 184.548 65.6688 184.819 69.6601 183.702C66.4574 183.734 62.2891 183.287 57.5415 181.579ZM123.349 163.19C125.908 163.19 128 161.131 128 158.577C128 156.023 125.924 154.666 123.349 154.666C120.79 154.666 118.698 156.039 118.698 158.577C118.698 161.115 120.774 163.19 123.349 163.19ZM118.682 182.425H128V164.786H118.682V182.425ZM106.821 182.425H116.139V151.25L106.821 155.608V182.425ZM101.831 163.366C98.9024 160.461 93.7202 160.636 93.7202 160.636C93.7202 160.636 88.522 160.461 85.609 163.366C82.6799 166.271 82.9052 168.777 82.9052 171.762C82.9052 174.747 82.6799 177.237 85.609 180.142C88.538 183.047 93.7202 182.872 93.7202 182.872C93.7202 182.872 98.9185 183.047 101.831 180.142C104.761 177.237 104.535 174.747 104.535 171.762C104.519 168.761 104.744 166.255 101.831 163.366ZM95.4262 174.843C95.4262 175.417 95.1365 176.838 93.7041 176.838C92.2718 176.838 91.9821 175.417 91.9821 174.843V168.394C91.9821 167.005 93.157 166.654 93.7041 166.654C94.2513 166.654 95.4262 166.989 95.4262 168.394V174.843ZM78.3346 163.366C75.4055 160.461 70.2234 160.636 70.2234 160.636C70.2234 160.636 65.0412 160.461 62.1121 163.366C61.8063 163.669 61.5166 163.988 61.2591 164.323C55.1113 159.599 49.5912 156.901 44.8274 154.57V151.266L41.2063 152.958C32.4513 149.431 26.8829 150.053 25.5471 152.974C25.5471 152.974 21.5398 158.21 35.4931 170.661V182.425H44.8113V177.86C43.7652 177.189 42.7191 176.471 41.6891 175.689C39.3073 173.901 37.2795 172.241 35.5091 170.677V165.728C37.6174 168.075 40.4177 170.74 44.1032 173.757L44.8274 174.332V169.575C44.8274 168.474 45.101 166.67 46.5655 166.67C48.0301 166.67 48.2715 167.771 48.2715 169.064V176.838C51.1684 178.785 54.2745 180.366 57.5576 181.563V166.574C57.5576 163.589 55.401 160.604 51.0235 160.604C48.4807 160.588 46.1149 161.913 44.8274 164.1V155.432C51.5707 158.769 58.3301 162.855 60.9051 164.739C59.2635 167.069 59.4084 169.224 59.4084 171.714C59.4084 174.699 59.1831 177.189 62.1121 180.094C65.0412 183 70.2234 182.824 70.2234 182.824C70.2234 182.824 75.4216 183 78.3346 180.094C81.2637 177.189 81.0223 174.699 81.0223 171.714C81.0223 168.761 81.2637 166.255 78.3346 163.366ZM35.4931 155.608V165.712C27.6554 157.013 29.2326 153.581 29.8281 153.086C32.0007 151.266 35.8632 151.809 40.1924 153.421L35.4931 155.608ZM71.9454 174.843C71.9454 175.417 71.6557 176.838 70.2234 176.838C68.791 176.838 68.5013 175.417 68.5013 174.843V168.394C68.5013 167.005 69.6762 166.654 70.2234 166.654C70.7705 166.654 71.9454 166.989 71.9454 168.394V174.843Z" fill="#B0B0B0"/>
</g>
</g>
<g clip-path="url(#clip3_1_138)">
<path d="M214.5 138.995H227.112V173.01C227.112 178.405 229.544 181.615 231.521 182.952C229.463 184.761 223.221 186.358 218.52 182.496C215.764 180.214 214.5 176.416 214.5 172.88V138.995ZM293.269 167.273V163.687H297.127V151.17H292.896C291.259 143.624 284.596 138.017 276.637 138.017C267.461 138.017 259.988 145.515 259.988 154.756V183.962C262.582 184.337 265.727 183.914 268.369 181.681C271.141 179.399 272.389 175.618 272.389 172.065V170.973H278.679V158.456H272.389V154.658C272.389 149.019 280.851 149.019 280.851 154.658V167.224C280.851 176.449 288.308 183.962 297.5 183.962V171.494C295.149 171.494 293.269 169.587 293.269 167.273ZM245.56 151.138V169.555C245.56 172.065 241.702 172.065 241.702 169.555V151.138H229.252V172.765C229.252 176.644 230.549 181.567 236.547 183.18C242.545 184.777 245.982 181.452 245.982 181.452C245.641 183.636 243.631 185.25 240.324 185.576C237.811 185.837 234.618 184.989 233.029 184.305V195.762C237.098 196.985 241.378 197.36 245.609 196.528C253.244 195.045 258.059 188.64 258.059 180.1V151.056H245.56V151.138Z" fill="#B0B0B0"/>
</g>
<g clip-path="url(#clip4_1_138)">
<path d="M486 130.146C473.122 138.828 471.752 145.13 470.636 147.057C469.568 149.034 468.772 156.825 466.923 160.599C465.058 164.422 458.285 167.435 456.388 168.699C454.523 169.962 451.878 174.87 449.71 179.098C432.482 178.386 423.031 185.383 408.4 194.26C413.086 192.689 415.301 191.555 415.301 191.555C430.314 185.724 437.502 180.491 460.102 183.585C460.277 183.585 460.404 183.683 460.548 183.715C461.169 184.071 461.392 184.833 461.042 185.464L452.452 200.983C452.053 201.744 451.208 202.149 450.364 201.971C430.155 198.116 414.202 204.773 399.539 204.984C387.841 205.162 384 199.557 384 199.298C384 199.12 384.096 199.023 384.271 199.023C384.271 199.023 390.375 199.023 400.702 196.544C412.432 173.818 422.887 165.864 434.267 165.864C434.267 165.864 445.694 165.864 448.706 175.891C452.34 169.46 453.217 167.921 453.217 167.921C454.061 166.399 458.795 155.416 466.987 145.016C475.194 134.649 481.394 132.073 486 130.146Z" fill="#B0B0B0"/>
</g>
<g clip-path="url(#clip5_1_138)">
<g clip-path="url(#clip6_1_138)">
<path d="M591.556 149.793L584.587 151.257L584.555 173.911C584.555 178.095 587.741 180.8 591.974 180.8C594.324 180.8 596.046 180.37 596.995 179.861V174.484C596.078 174.85 591.572 176.155 591.572 171.986V161.932H596.995V155.918H591.572L591.556 149.793ZM605.895 158.002L605.461 155.918H599.281V180.291H606.41V163.889C608.1 161.693 610.948 162.123 611.866 162.409V155.918C610.9 155.584 607.569 154.964 605.895 158.002ZM620.75 146.5L613.572 148.011V153.77L620.75 152.259V146.5ZM572.227 163.093C572.227 161.995 573.16 161.566 574.657 161.55C576.83 161.55 579.598 162.202 581.771 163.364V156.714C579.405 155.791 577.039 155.425 574.673 155.425C568.879 155.425 565.017 158.416 565.017 163.411C565.017 171.239 575.88 169.966 575.88 173.339C575.88 174.643 574.738 175.073 573.144 175.073C570.778 175.073 567.721 174.102 565.323 172.814V179.177C567.978 180.307 570.666 180.784 573.128 180.784C579.067 180.784 583.155 178.27 583.155 173.18C583.155 164.764 572.227 166.275 572.227 163.093ZM668.001 168.391C668.001 161.152 664.46 155.441 657.669 155.441C650.877 155.441 646.741 161.152 646.741 168.343C646.741 176.855 651.617 180.784 658.57 180.784C661.982 180.784 664.541 180.02 666.488 178.955V173.641C664.541 174.611 662.304 175.2 659.471 175.2C656.687 175.2 654.241 174.23 653.919 170.92H667.904C667.936 170.555 668.001 169.075 668.001 168.391ZM653.854 165.718C653.854 162.536 655.834 161.2 657.62 161.2C659.375 161.2 661.241 162.536 661.241 165.718H653.854ZM635.685 155.441C632.884 155.441 631.082 156.745 630.084 157.652L629.714 155.902H623.421V188.484L630.567 186.989L630.583 179.002C631.613 179.75 633.142 180.784 635.636 180.784C640.754 180.784 645.421 177.093 645.421 168.12C645.437 159.911 640.706 155.441 635.685 155.441ZM633.979 174.93C632.305 174.93 631.307 174.325 630.615 173.593L630.567 163.093C631.307 162.282 632.337 161.693 633.979 161.693C636.586 161.693 638.388 164.589 638.388 168.28C638.404 172.082 636.634 174.93 633.979 174.93ZM613.588 180.291H620.766V155.918H613.588V180.291Z" fill="#B0B0B0"/>
</g>
</g>
<g clip-path="url(#clip7_1_138)">
<g clip-path="url(#clip8_1_138)">
<path d="M774.887 158.989C774.77 162.627 776.604 164.238 776.65 165.261C776.628 165.469 776.556 165.669 776.441 165.844C776.325 166.02 776.169 166.165 775.985 166.268L773.912 167.707C773.644 167.894 773.327 168.001 773 168.016C772.93 168.012 771.673 168.31 769.682 163.902C768.468 165.405 766.922 166.613 765.164 167.433C763.406 168.253 761.482 168.663 759.54 168.632C756.903 168.775 749.755 167.148 750.123 159.604C749.866 153.455 755.641 149.636 761.613 149.958C762.764 149.962 765.112 150.018 769.225 150.966V148.457C769.661 144.207 766.844 140.909 761.966 141.404C761.578 141.405 758.824 141.323 754.541 143.028C753.348 143.571 753.196 143.481 752.799 143.481C751.599 143.481 752.093 140.03 752.323 139.594C753.167 138.566 758.132 136.646 763.005 136.673C766.263 136.388 769.504 137.385 772.026 139.449C773.052 140.586 773.834 141.918 774.326 143.363C774.818 144.809 775.009 146.338 774.889 147.859L774.887 158.989ZM760.888 164.191C766.141 164.116 768.365 160.984 768.872 159.297C769.271 157.683 769.204 156.661 769.204 154.896C767.638 154.523 765.383 154.117 762.796 154.114C760.342 153.931 755.859 155.018 756.034 159.295C755.833 161.992 757.836 164.339 760.888 164.191ZM788.576 167.894C787.302 168.009 786.709 167.113 786.522 166.228L778.454 139.781C778.297 139.335 778.193 138.874 778.143 138.403C778.113 138.209 778.163 138.012 778.28 137.853C778.397 137.695 778.573 137.59 778.768 137.56C778.807 137.554 778.423 137.56 782.373 137.56C783.795 137.419 784.258 138.529 784.406 139.226L790.192 161.846L795.564 139.226C795.65 138.709 796.04 137.448 797.638 137.581H800.417C800.769 137.552 802.217 137.501 802.471 139.247L807.885 162.156L813.858 139.247C813.936 138.896 814.299 137.42 815.912 137.581H819.107C819.244 137.56 820.103 137.451 819.957 138.959C819.887 139.256 820.509 137.247 811.412 166.249C811.226 167.134 810.631 168.03 809.358 167.914H806.33C804.558 168.099 804.304 166.363 804.276 166.188L798.904 144.162L793.594 166.165C793.568 166.34 793.314 168.077 791.54 167.892H788.576V167.894ZM832.878 168.798C831.925 168.799 827.383 168.75 823.586 166.824C823.207 166.665 822.885 166.398 822.66 166.058C822.435 165.717 822.317 165.318 822.321 164.911V163.184C822.321 161.827 823.325 162.076 823.751 162.238C825.377 162.89 826.421 163.385 828.418 163.78C834.355 164.989 836.966 163.411 837.606 163.06C839.736 161.806 839.905 158.936 838.457 157.447C836.759 156.035 835.949 155.982 829.85 154.074C829.098 153.866 822.771 151.888 822.756 145.663C822.657 141.127 826.814 136.64 834.018 136.677C836.071 136.675 841.539 137.34 843.02 139.186C843.239 139.521 843.347 139.916 843.331 140.316V141.94C843.331 142.653 843.069 143.01 842.542 143.01C841.293 142.872 839.077 141.216 834.579 141.283C833.462 141.225 828.117 141.429 828.356 145.294C828.287 148.339 832.667 149.481 833.168 149.613C839.074 151.375 841.049 151.667 843.393 154.364C846.169 157.938 844.672 162.122 844.097 163.269C841.007 169.291 833.014 168.801 832.878 168.798ZM839.39 185.641C828.045 193.948 811.577 198.37 797.516 198.37C778.543 198.494 760.21 191.577 746.12 178.978C745.062 178.032 745.996 176.736 747.282 177.457C762.912 186.322 780.608 190.98 798.614 190.968C812.061 190.897 825.361 188.192 837.75 183.01C839.659 182.207 841.277 184.262 839.39 185.641ZM844.118 180.294C842.667 178.443 834.515 179.429 830.866 179.861C829.766 179.985 829.579 179.039 830.576 178.34C837.067 173.816 847.728 175.112 848.952 176.633C850.175 178.154 848.62 188.745 842.544 193.805C841.611 194.587 840.718 194.174 841.133 193.146C842.5 189.733 845.57 182.145 844.118 180.294Z" fill="#B0B0B0"/>
</g>
</g>
<g clip-path="url(#clip9_1_138)">
<g clip-path="url(#clip10_1_138)">
<path d="M1007.93 159.161C1005.53 159.161 1003.42 160.156 1001.87 161.711C996.175 157.75 988.495 155.201 979.985 154.928L984.408 134.916L998.49 138.091C998.49 141.554 1001.3 144.377 1004.75 144.377C1008.26 144.377 1011.09 141.474 1011.09 138.01C1011.09 134.547 1008.28 131.644 1004.75 131.644C1002.29 131.644 1000.17 133.136 999.113 135.172L983.561 131.708C982.779 131.5 982.013 132.061 981.805 132.847L976.951 154.912C968.505 155.265 960.905 157.814 955.189 161.775C953.64 160.156 951.453 159.161 949.058 159.161C940.181 159.161 937.275 171.124 945.402 175.213C945.114 176.48 944.987 177.827 944.987 179.174C944.987 192.612 960.059 203.5 978.564 203.5C997.149 203.5 1012.22 192.612 1012.22 179.174C1012.22 177.827 1012.08 176.416 1011.73 175.149C1019.69 171.044 1016.76 159.161 1007.93 159.161ZM958.287 176.063C958.287 172.535 961.097 169.697 964.625 169.697C968.074 169.697 970.884 172.519 970.884 176.063C970.884 179.527 968.074 182.349 964.625 182.349C961.113 182.365 958.287 179.527 958.287 176.063ZM992.503 191.056C986.691 196.893 970.293 196.893 964.482 191.056C963.843 190.495 963.843 189.501 964.482 188.859C965.04 188.298 966.03 188.298 966.589 188.859C971.028 193.43 985.749 193.51 990.379 188.859C990.938 188.298 991.928 188.298 992.487 188.859C993.141 189.501 993.141 190.495 992.503 191.056ZM992.375 182.365C988.926 182.365 986.116 179.543 986.116 176.079C986.116 172.551 988.926 169.713 992.375 169.713C995.887 169.713 998.713 172.535 998.713 176.079C998.698 179.527 995.887 182.365 992.375 182.365Z" fill="#B0B0B0"/>
</g>
</g>
</g>
<defs>
<clipPath id="clip0_1_138">
<rect width="1050" height="335" fill="white"/>
</clipPath>
<clipPath id="clip1_1_138">
<rect width="153" height="34" fill="white" transform="translate(0 150.5)"/>
</clipPath>
<clipPath id="clip2_1_138">
<rect width="103" height="34" fill="white" transform="translate(25 150.5)"/>
</clipPath>
<clipPath id="clip3_1_138">
<rect width="83" height="59" fill="white" transform="translate(214.5 138)"/>
</clipPath>
<clipPath id="clip4_1_138">
<rect width="102" height="75" fill="white" transform="translate(384 130)"/>
</clipPath>
<clipPath id="clip5_1_138">
<rect width="151" height="42" fill="white" transform="translate(541 146.5)"/>
</clipPath>
<clipPath id="clip6_1_138">
<rect width="103" height="42" fill="white" transform="translate(565 146.5)"/>
</clipPath>
<clipPath id="clip7_1_138">
<rect width="151" height="62" fill="white" transform="translate(722 136.5)"/>
</clipPath>
<clipPath id="clip8_1_138">
<rect width="104" height="62" fill="white" transform="translate(745.5 136.5)"/>
</clipPath>
<clipPath id="clip9_1_138">
<rect width="151" height="72" fill="white" transform="translate(903 131.5)"/>
</clipPath>
<clipPath id="clip10_1_138">
<rect width="76" height="72" fill="white" transform="translate(940.5 131.5)"/>
</clipPath>
</defs>
</svg>
